<svg width="200" height="62" fill="none" xmlns="http://www.w3.org/2000/svg"><g clip-path="url(#a)"><path d="M86.542 37.641a8.17 8.17 0 0 0 4.135 1.166c2.358 0 3.734-1.245 3.734-3.048 0-1.667-.954-2.624-3.366-3.552-2.914-1.031-4.714-2.545-4.714-5.063 0-2.784 2.306-4.852 5.778-4.852 1.83 0 3.155.424 3.95.875l-.636 1.882a7.116 7.116 0 0 0-3.393-.848c-2.439 0-3.366 1.459-3.366 2.678 0 1.667 1.086 2.491 3.551 3.445 3.022 1.167 4.56 2.625 4.56 5.25 0 2.757-2.041 5.142-6.256 5.142-1.723 0-3.605-.504-4.56-1.14l.583-1.935zM101.307 34.46c.052 3.154 2.067 4.453 4.401 4.453 1.667 0 2.678-.291 3.552-.662l.4 1.67c-.822.37-2.227.795-4.268.795-3.95 0-6.309-2.6-6.309-6.469 0-3.868 2.28-6.918 6.018-6.918 4.188 0 5.302 3.684 5.302 6.044a8.774 8.774 0 0 1-.08 1.086h-9.016zm6.839-1.667c.027-1.485-.61-3.791-3.235-3.791-2.358 0-3.393 2.173-3.578 3.79h6.813zM113.288 31.623c0-1.51-.027-2.81-.106-4h2.041l.08 2.517h.104c.584-1.722 1.988-2.81 3.552-2.81a2.55 2.55 0 0 1 .664.08v2.2a3.531 3.531 0 0 0-.796-.079c-1.644 0-2.81 1.246-3.128 2.996a6.491 6.491 0 0 0-.106 1.087v6.84h-2.306l.001-8.83zM123.52 27.62l2.518 7.211a33.145 33.145 0 0 1 1.035 3.287h.079c.291-1.06.662-2.12 1.087-3.287l2.491-7.21h2.439l-5.036 12.83h-2.227l-4.878-12.83h2.492zM155.277 39.112c-.61.318-1.962.742-3.684.742-3.868 0-6.389-2.624-6.389-6.547 0-3.95 2.703-6.813 6.892-6.813 1.379 0 2.601.345 3.234.663l-.533 1.8c-.557-.318-1.432-.61-2.704-.61-2.942 0-4.535 2.174-4.535 4.852 0 2.969 1.909 4.801 4.453 4.801 1.326 0 2.201-.344 2.864-.636l.402 1.748zM159.147 33.597c.053 3.154 2.068 4.453 4.402 4.453 1.67 0 2.677-.291 3.552-.662l.4 1.667c-.821.37-2.226.795-4.268.795-3.949 0-6.308-2.598-6.308-6.47 0-3.87 2.279-6.918 6.017-6.918 4.188 0 5.302 3.685 5.302 6.044a9.19 9.19 0 0 1-.079 1.087l-9.018.004zm6.839-1.667c.027-1.485-.609-3.791-3.233-3.791-2.36 0-3.394 2.173-3.579 3.79h6.812zM170.811 37.202c.688.451 1.908.928 3.074.928 1.697 0 2.492-.849 2.492-1.909 0-1.113-.662-1.722-2.385-2.359-2.307-.821-3.393-2.094-3.393-3.632 0-2.067 1.667-3.764 4.426-3.764 1.3 0 2.439.371 3.155.795l-.583 1.697a4.997 4.997 0 0 0-2.624-.742c-1.379 0-2.148.795-2.148 1.75 0 1.06.769 1.537 2.439 2.173 2.227.848 3.367 1.961 3.367 3.868 0 2.254-1.75 3.844-4.799 3.844-1.404 0-2.703-.345-3.605-.875l.584-1.774z" fill="#292929"/><path fill-rule="evenodd" clip-rule="evenodd" d="M79.603 28.16a15.03 15.03 0 0 0-.26-1.285l2.071-3.556-1.534-2.456-1.534-2.458-3.267 1.634a9.605 9.605 0 0 0-.934-.632l-.503-4.19-2.553-.312-2.552-.311-1.496 3.946a9.65 9.65 0 0 0-1.059.39l-2.784-2.37-2.077 2.016-2.078 2.017-2.839 5.97-.386 3.164-.386 3.163 1.668.872-.379.8c.067.437.924 1.907 1.03 2.327l.284.28-1.28 2.195 1.534 2.458 1.534 2.457 3.27-1.632c.298.229.61.44.934.632l.502 4.19 2.552.311 2.553.312 1.496-3.946a9.75 9.75 0 0 0 1.059-.389l2.784 2.37 2.078-2.017 2.077-2.016-1.157-3.95c.203-.381.391-.776.563-1.184l3.433-.838.386-3.163.387-3.164-3.137-1.635zM67.855 41.43c-4.495-.547-7.588-5.508-6.908-11.08.68-5.57 4.874-9.643 9.37-9.095 4.494.549 7.588 5.51 6.908 11.081-.68 5.572-4.875 9.644-9.367 9.096l-.003-.001z" fill="url(#b)"/><path fill-rule="evenodd" clip-rule="evenodd" d="M76.553 27.21c-.072-.454-.16-.898-.267-1.334l2.137-3.694-1.574-2.55-1.575-2.549-3.37 1.698a9.851 9.851 0 0 0-.962-.656l-.513-4.35-2.628-.321-2.627-.32-1.544 4.104c-.37.114-.735.249-1.09.405l-2.863-2.457-2.141 2.096-2.142 2.096 1.187 4.1c-.21.396-.403.806-.581 1.23l-3.535.874-.4 3.285-.4 3.285 3.222 1.692c.071.453.16.898.267 1.334l-2.135 3.693 1.576 2.55 1.574 2.55 3.37-1.698c.308.237.629.456.962.655l.513 4.35 2.628.321 2.627.32 1.545-4.099a9.81 9.81 0 0 0 1.09-.405l2.864 2.458 2.141-2.097 2.142-2.096-1.19-4.102c.209-.396.402-.806.58-1.23l3.535-.874.4-3.285.4-3.285-3.223-1.694zM64.44 41.002c-4.627-.564-7.806-5.712-7.1-11.497.705-5.785 5.029-10.017 9.656-9.453 4.628.564 7.808 5.712 7.102 11.497-.706 5.786-5.029 10.018-9.658 9.453z" fill="url(#c)"/><path fill-rule="evenodd" clip-rule="evenodd" d="M74.1 31.548c-.706 5.787-4.787 10.047-9.117 9.519a5.854 5.854 0 0 1-.538-.092c-3.928-.847-6.558-5.54-6.069-10.906-.373 4.48 1.95 8.363 5.327 8.775 3.488.426 6.777-3.01 7.345-7.67.568-4.659-1.8-8.78-5.287-9.203-3.376-.412-6.564 2.796-7.28 7.234.815-5.322 4.497-9.25 8.513-9.128.18.005.36.018.544.041 4.33.527 7.268 5.647 6.562 11.43z" fill="url(#d)"/><path fill-rule="evenodd" clip-rule="evenodd" d="M66.994 20.076a6.444 6.444 0 0 0-.538-.091c-4.33-.528-8.412 3.734-9.118 9.518-.705 5.784 2.232 10.904 6.562 11.432.183.022.363.035.545.04 4.12.127 7.896-4.014 8.573-9.559.677-5.545-1.993-10.473-6.024-11.34zm-3.29 18.77c-3.377-.412-5.7-4.295-5.327-8.776.012-.142.026-.288.044-.433.017-.146.04-.292.061-.432.715-4.439 3.903-7.646 7.28-7.233 3.489.425 5.855 4.546 5.287 9.203-.57 4.656-3.858 8.095-7.346 7.67z" fill="url(#e)"/><path fill-rule="evenodd" clip-rule="evenodd" d="m75.273 17.086 3.077 1.321 3.064 4.914-2.992-1.136-3.15-5.1z" fill="#CC2543"/><path fill-rule="evenodd" clip-rule="evenodd" d="m76.285 25.878 3.057 1 2.072-3.557-2.992-1.136-2.137 3.693zM81.963 36.126l-2.989-.648-3.536.872-.581 1.23 3.11.567.562-1.183 3.434-.838z" fill="#9A1743"/><path fill-rule="evenodd" clip-rule="evenodd" d="m76.285 25.878.267 1.334 3.051.948-.261-1.283-3.057-.999z" fill="#9A1743"/><path fill-rule="evenodd" clip-rule="evenodd" d="m79.124 42.095-3.08-.416-1.187-4.099 3.11.566 1.157 3.95z" fill="#CC2543"/><path fill-rule="evenodd" clip-rule="evenodd" d="m74.968 46.13-3.207-.259 4.283-4.192 3.08.416-4.156 4.034zM69.633 48.094l-3.368-.176 1.544-4.1 2.982 1.22-1.158 3.056zM60.61 43.888l-.789.393-3.654-.312 3.37-1.698.961.656.111.96z" fill="#9A1743"/><path fill-rule="evenodd" clip-rule="evenodd" d="m59.678 15.183 4.344 1.012-.39 1.042-1.09.404-2.864-2.458z" fill="#CC2543"/><path fill-rule="evenodd" clip-rule="evenodd" d="m70.43 13.778 3.214 1.44.304 2.535-2.045 1.03-.961-.655-.512-4.35z" fill="#9A1743"/><path fill-rule="evenodd" clip-rule="evenodd" d="m69.92 21.6 1.081.134s1.436 1.393 1.954 2.59l-1.06-.087s-.951-1.874-1.975-2.636zM72.703 26.392l1.017.124.19.534-.997.293-.21-.951z" fill="#FFC788" style="mix-blend-mode:soft-light"/><path d="M145.662 17.613c-.361-3.78-2.861-6.42-2.861-6.42l-1.299.007.4 5.476c-1.094 1.534-2.667 1.923-2.667 1.923v-.009s-1.582-.374-2.693-1.892l.333-5.48-1.298.008s-2.468 2.667-2.787 6.453c0 0-.028 1.263.009 1.39.196.69 1.038 1.769 3.234 2.62l.9 17.449a4.24 4.24 0 1 0 4.84-.028l.697-17.45c2.139-.858 2.995-1.915 3.201-2.656.043-.157-.009-1.39-.009-1.39zm-5.096 27.034-2.371.014-1.201-2.046 1.174-2.06 2.372-.014 1.201 2.046-1.175 2.06z" fill="url(#f)"/><path d="M145.67 19.004c-.361-3.782-2.861-6.421-2.861-6.421l-1.299.007.4 5.476c-1.094 1.533-2.667 1.923-2.667 1.923v-.009s-1.581-.374-2.693-1.892l.333-5.48-1.298.008s-2.468 2.667-2.786 6.454c0 0 .638 3 3.242 4.008l.9 17.45a4.25 4.25 0 0 0-1.582 2.117 4.249 4.249 0 0 0-.02 2.643 4.243 4.243 0 1 0 6.442-4.789l.697-17.45c2.588-1.037 3.192-4.045 3.192-4.045zm-5.095 27.032-2.372.014-1.201-2.046 1.174-2.06 2.372-.014 1.201 2.046-1.174 2.06z" fill="url(#g)"/><path d="m136.868 11.225-1.299.007.008 1.39 1.299-.007-.008-1.39zM142.797 11.198l-1.299.008.008 1.39 1.299-.007-.008-1.39zM140.561 44.652l-2.372.014.008 1.39 2.372-.013-.008-1.39z" fill="#E5E2FF"/><path d="m137.135 24.85.688 14.175c1.53.792 2.918-.017 2.918-.017l.657-14.184c-2.138-1.081-4.263.025-4.263.025zm3.104 14.04a3.736 3.736 0 0 1-1 .15 3.153 3.153 0 0 1-.934-.133L137.5 24.96a6.772 6.772 0 0 1 1.867-.281 5.527 5.527 0 0 1 1.674.244l-.802 13.967z" fill="url(#h)"/><path d="m140.239 38.89.502.118s-1.239.898-2.918.017l.479-.118a3.573 3.573 0 0 0 1.937-.016z" fill="#E5E2FF"/><path style="mix-blend-mode:multiply" opacity=".62" d="m137.135 24.85.362.112s1.503-.587 3.539-.038l.362-.1s-.699-.482-2.134-.474c-1.436.008-2.129.5-2.129.5z" fill="url(#i)"/><path style="mix-blend-mode:multiply" opacity=".62" d="M136.037 23.079s3.096.808 6.437-.03l-.089 2.233s-.478-1.272-2.765-1.374c-2.676-.119-3.387 1.75-3.387 1.75l-.196-2.58z" fill="url(#j)"/><path style="mix-blend-mode:screen" opacity=".5" d="M142.385 25.282a2.56 2.56 0 0 0-.99-.949l-.645 16.564 1.024-.4.611-15.215z" fill="url(#k)"/><path d="M142.385 25.282s-1.46 1.58-.13 3.261l.13-3.261z" fill="#292929"/><path d="M197.195 33.858c0-.312-.149-.61-.418-.852l3.223-2L150.826 2.18c.193-.199.302-.464.306-.741 0-.417-.267-.81-.729-1.077C149.998.13 149.47 0 148.909 0c-.561 0-1.079.127-1.48.359-.466.267-.72.647-.72 1.067 0 .42.267.809.729 1.076.405.234.933.364 1.495.364.412.003.82-.075 1.203-.228l48.411 28.39-2.512 1.565a3.279 3.279 0 0 0-1.067-.175c-.553 0-1.079.127-1.479.359-.468.266-.721.646-.721 1.067 0 .42.267.809.729 1.076.406.235.936.363 1.494.363.559 0 1.08-.127 1.48-.358.468-.268.724-.647.724-1.067zM147.807 1.86c-.228-.133-.358-.29-.358-.436 0-.145.127-.299.35-.427.286-.165.69-.26 1.11-.26.42 0 .834.096 1.125.267.228.133.358.29.358.436 0 .146-.127.299-.35.428-.574.33-1.655.326-2.235-.008zm48.298 32.424c-.574.334-1.656.33-2.234-.004-.228-.134-.359-.291-.359-.437 0-.145.127-.299.351-.427.285-.165.69-.26 1.109-.26.327-.002.651.06.953.185l.084.133.089-.055c.227.133.357.29.357.435 0 .145-.127.301-.35.43z" fill="url(#l)"/><path d="M168.051 59.192c-.407-.234-.934-.363-1.495-.363s-1.079.127-1.479.358l-13.313-7.396 3.962-2.284c.443.225.934.34 1.431.334.553 0 1.079-.128 1.48-.359.466-.266.72-.647.72-1.067 0-.42-.267-.809-.728-1.076-.406-.234-.934-.363-1.495-.363s-1.08.127-1.48.358c-.467.267-.72.648-.72 1.067.002.215.07.425.194.6l-4.864 2.806 14.247 7.912c-.1.16-.153.345-.155.534 0 .416.267.81.728 1.077.406.234.937.363 1.495.363s1.079-.127 1.48-.359c.466-.266.72-.647.72-1.067 0-.42-.266-.807-.728-1.075zm-12.03-11.22c.286-.165.691-.26 1.111-.26.42 0 .833.097 1.125.267.228.133.358.29.358.436 0 .145-.128.298-.35.427-.574.334-1.656.334-2.236-.005-.227-.133-.358-.29-.358-.436 0-.146.13-.3.35-.429zm11.671 12.724c-.286.165-.69.26-1.109.26-.42 0-.835-.097-1.126-.267-.228-.133-.358-.29-.358-.436a.328.328 0 0 1 .066-.176l.134.072.188-.34c.334-.166.704-.25 1.077-.243.423 0 .833.096 1.124.267.229.133.36.29.36.436 0 .146-.136.299-.356.427z" fill="url(#m)"/><path d="M175.236 44.635c.553 0 1.079-.128 1.48-.36.467-.266.72-.646.72-1.066 0-.42-.267-.81-.728-1.077-.406-.234-.937-.363-1.495-.363-.557 0-1.079.127-1.48.359-.466.267-.72.647-.72 1.067.002.206.066.407.181.577l-3.261 1.959.063.104a3.047 3.047 0 0 0-1.463-.348c-.554 0-1.079.127-1.48.358-.466.267-.72.648-.72 1.067 0 .42.267.81.729 1.076.405.235.933.364 1.495.364.56 0 1.078-.127 1.479-.358.467-.267.721-.648.721-1.067a1.078 1.078 0 0 0-.254-.675l3.268-1.966a3.05 3.05 0 0 0 1.465.349zm-1.133-1.868c.285-.164.69-.26 1.11-.26.42 0 .833.097 1.124.268.228.133.359.29.359.436 0 .145-.127.299-.35.427-.575.334-1.657.33-2.235-.004-.229-.134-.359-.291-.359-.437 0-.145.128-.301.351-.43zm-4.438 4.586c-.573.334-1.656.334-2.234-.004-.228-.133-.359-.29-.359-.436 0-.146.128-.3.351-.427.285-.165.69-.26 1.11-.26.419 0 .834.096 1.124.267.228.133.359.29.359.436 0 .146-.128.296-.351.424z" fill="url(#n)"/><path d="m54.646 59.902 14.484-8.843c.421.197.881.296 1.346.292.554 0 1.08-.127 1.48-.358.467-.267.72-.648.72-1.067 0-.42-.267-.81-.728-1.077-.405-.234-.934-.363-1.495-.363-.56 0-1.078.127-1.48.358-.466.267-.72.648-.72 1.067.005.244.092.479.246.667l-13.864 8.464-13.499-8.32c.054-.126.082-.26.083-.397 0-.417-.267-.809-.728-1.076-.407-.234-.934-.364-1.495-.364-.56 0-1.079.128-1.48.36-.467.266-.72.647-.72 1.066 0 .42.267.81.728 1.077.406.234.934.363 1.495.363.56 0 1.079-.127 1.48-.359.054-.03.104-.066.152-.098l13.995 8.608zm14.345-9.99c0-.143.128-.299.352-.428.285-.165.69-.259 1.109-.259.42 0 .835.096 1.125.267.228.133.359.29.359.436 0 .146-.128.299-.35.427-.576.333-1.657.333-2.235-.004a.83.83 0 0 1-.097-.067l-.073-.121-.042.025a.416.416 0 0 1-.148-.276zm-31.097.836c-.228-.133-.358-.29-.358-.436 0-.145.128-.299.35-.427.286-.165.69-.26 1.11-.26.42 0 .834.096 1.125.267.227.133.359.29.359.436 0 .145-.128.299-.35.427-.575.33-1.657.327-2.236-.007z" fill="url(#o)"/><path d="M31.512 9.107c.176-.194.275-.446.278-.709 0-.417-.267-.81-.729-1.077-.405-.234-.933-.363-1.494-.363-.561 0-1.08.127-1.48.359-.467.266-.72.647-.72 1.067 0 .419.267.81.729 1.077.405.234.933.363 1.494.363a3.14 3.14 0 0 0 1.256-.252l6.622 3.919 12.095-7.318.047.03c.406.234.933.363 1.494.363.561 0 1.08-.128 1.48-.359.468-.266.721-.647.721-1.067 0-.419-.267-.809-.729-1.075-.405-.235-.934-.364-1.494-.364-.561 0-1.08.127-1.48.358-.467.267-.72.648-.72 1.067.002.18.05.355.14.51l-11.56 6.994-5.95-3.523zm-3.047-.286c-.228-.133-.359-.29-.359-.437 0-.146.128-.299.351-.427.286-.165.69-.26 1.11-.26.42 0 .834.097 1.125.267.228.133.359.29.359.436 0 .105-.07.217-.196.32l-.056-.033-.073.123c-.01.006-.016.012-.026.017-.576.33-1.655.328-2.237-.006h.002zm21.505-4.12c.285-.165.69-.26 1.11-.26.42 0 .834.097 1.125.267.228.133.358.29.358.435 0 .145-.128.299-.35.428-.575.333-1.656.333-2.235-.004-.228-.134-.359-.292-.359-.437 0-.146.128-.302.35-.43z" fill="url(#p)"/><path d="M120.231 50.783c.176-.195.275-.447.278-.71 0-.417-.267-.81-.728-1.076-.406-.235-.934-.364-1.496-.364-.561 0-1.079.128-1.479.36-.467.266-.72.646-.72 1.066 0 .42.267.81.728 1.077.406.234.934.363 1.495.363a3.14 3.14 0 0 0 1.256-.252l12.834 7.745 3.958-2.368.046.03c.406.234.934.363 1.494.363.561 0 1.08-.127 1.481-.359.467-.267.72-.647.72-1.067 0-.42-.267-.809-.729-1.076-.405-.235-.934-.364-1.494-.364-.561 0-1.079.128-1.48.36-.467.266-.72.646-.72 1.066.002.18.05.355.141.509l-3.421 2.043-12.164-7.346zm-3.047-.287c-.228-.133-.359-.29-.359-.436 0-.146.128-.299.35-.428.287-.164.691-.259 1.11-.259.42 0 .834.096 1.126.267.228.133.359.29.359.436 0 .105-.071.217-.196.32l-.057-.033-.072.122-.026.018c-.574.328-1.656.326-2.235-.008v.001zm19.581 4.654c.286-.164.69-.26 1.11-.26.419 0 .834.097 1.125.268.228.133.359.29.359.436 0 .145-.128.299-.351.427-.575.334-1.656.33-2.235-.004-.228-.134-.359-.291-.359-.437 0-.145.128-.302.351-.431v.001z" fill="url(#q)"/><path d="M.72 23.873c.401.232.927.36 1.48.36a3.06 3.06 0 0 0 1.452-.343l20.492 12.584-1.75 1.063 6.505 3.785 1.923-1.156c.43.212.904.319 1.384.313.558 0 1.088-.129 1.494-.363.463-.267.728-.66.728-1.076 0-.416-.255-.8-.72-1.067-.4-.231-.925-.36-1.479-.36-.553 0-1.089.13-1.495.364-.463.267-.728.66-.728 1.076.001.223.073.44.206.618l-1.319.793-5.044-2.934 1.728-1.048L4.237 23.38a1.05 1.05 0 0 0 .187-.588c0-.42-.257-.8-.72-1.067-.4-.23-.927-.358-1.48-.358-.554 0-1.09.13-1.495.364-.464.266-.729.66-.729 1.076 0 .417.256.798.72 1.067zm30.384 14.744c.29-.168.7-.267 1.125-.267.424 0 .824.095 1.11.26.223.13.35.285.35.428.001.143-.133.304-.358.436-.58.333-1.66.337-2.236.004-.222-.129-.35-.284-.35-.427 0-.144.13-.302.359-.434zM1.102 22.373c.29-.168.7-.267 1.125-.267.424 0 .824.094 1.11.26.222.128.35.284.35.427 0 .143-.133.304-.359.436-.578.333-1.66.333-2.234.005-.223-.129-.351-.284-.351-.428 0-.143.127-.304.359-.433z" fill="url(#r)"/><path d="M97.086 40.961c-.4-.23-.927-.358-1.48-.358-.553 0-1.088.129-1.495.364-.462.267-.728.66-.728 1.076 0 .417.256.8.72 1.067.401.232.926.359 1.48.359a3.054 3.054 0 0 0 1.462-.348l3.268 1.965a1.09 1.09 0 0 0-.253.674c0 .421.257.8.721 1.067.4.231.926.358 1.48.358.553 0 1.088-.128 1.494-.362.463-.267.728-.66.728-1.077 0-.417-.256-.8-.72-1.067-.4-.231-.926-.36-1.479-.36a3.05 3.05 0 0 0-1.463.349l.062-.103-3.26-1.96c.115-.17.178-.37.18-.577.003-.42-.253-.798-.717-1.067zm-1.503 1.769c-.419 0-.823-.095-1.109-.26-.223-.128-.351-.284-.351-.427 0-.143.133-.304.359-.436.291-.168.701-.267 1.125-.267.423 0 .824.094 1.11.26.222.128.35.284.35.427 0 .143-.133.304-.358.436-.292.17-.702.267-1.126.267zm5.578 2.596c.291-.169.701-.267 1.126-.267.424 0 .823.095 1.109.26.223.128.35.284.35.427 0 .142-.133.304-.359.436-.578.333-1.66.333-2.234.005-.223-.13-.35-.285-.35-.428 0-.143.133-.302.358-.434z" fill="url(#s)"/><path d="M38.024 43.306c.4.232.927.359 1.48.359a3.05 3.05 0 0 0 1.463-.348l11.811 7.115a1.08 1.08 0 0 0-.253.675c0 .42.255.8.72 1.067.4.231.926.36 1.48.36.553 0 1.088-.13 1.494-.364.463-.267.729-.66.729-1.077 0-.416-.256-.8-.72-1.067-.4-.23-.927-.358-1.48-.358a3.052 3.052 0 0 0-1.463.349l.063-.105-11.804-7.108c.115-.17.178-.371.18-.578 0-.42-.255-.8-.72-1.066-.4-.232-.926-.359-1.48-.359-.553 0-1.088.13-1.494.363-.463.267-.729.66-.729 1.076 0 .417.259.798.723 1.066zm15.6 7.365c.29-.168.7-.267 1.123-.267.424 0 .825.094 1.11.26.224.128.351.283.351.427 0 .143-.133.304-.359.436-.29.167-.7.267-1.124.267-.424 0-.824-.095-1.11-.26-.223-.129-.35-.284-.35-.427 0-.143.13-.305.358-.436zM38.401 41.8c.291-.168.7-.267 1.125-.267.424 0 .824.095 1.11.26.223.128.35.285.35.427 0 .143-.133.305-.358.436-.578.334-1.66.334-2.235.005-.223-.129-.35-.284-.35-.428 0-.143.13-.3.358-.431v-.002z" fill="url(#t)"/><path d="M91.895 48.105c.554 0 1.079-.127 1.48-.358.466-.267.72-.648.72-1.067 0-.42-.267-.81-.729-1.077-.405-.234-.933-.364-1.495-.364s-1.078.128-1.479.36c-.467.266-.72.646-.72 1.066.002.206.065.407.18.578l-16.573 9.51.062.102a3.048 3.048 0 0 0-1.462-.348c-.554 0-1.079.128-1.48.36-.467.266-.72.646-.72 1.066 0 .42.266.81.728 1.077.406.234.934.363 1.494.363.561 0 1.08-.127 1.481-.359.467-.267.72-.647.72-1.067a1.075 1.075 0 0 0-.253-.675l16.584-9.515c.45.236.953.356 1.462.348zm-1.134-1.867c.286-.166.69-.26 1.11-.26.42 0 .835.096 1.126.267.228.133.358.29.358.436 0 .146-.128.298-.35.426-.575.334-1.657.33-2.235-.004-.228-.134-.359-.291-.359-.436 0-.146.128-.3.35-.428v-.001zM73.012 58.375c-.575.334-1.656.334-2.235-.004-.228-.133-.359-.29-.359-.436 0-.145.129-.299.351-.427.286-.165.69-.26 1.11-.26.419 0 .834.096 1.125.267.227.133.359.29.359.436 0 .146-.128.295-.351.423v.001z" fill="url(#u)"/><path d="M83.74 6.726c.553 0 1.079-.127 1.48-.358.466-.267.72-.647.72-1.067 0-.42-.267-.81-.729-1.077-.406-.235-.934-.363-1.495-.363s-1.08.127-1.48.358c-.466.267-.72.647-.72 1.067.003.206.065.407.181.577l-3.26 1.96.062.103a3.043 3.043 0 0 0-1.462-.348c-.554 0-1.08.127-1.48.358-.467.267-.72.648-.72 1.067 0 .42.267.81.728 1.077.406.234.934.363 1.495.363.56 0 1.079-.127 1.48-.359.467-.267.72-.647.72-1.067a1.088 1.088 0 0 0-.253-.675l3.267-1.965c.452.237.956.357 1.466.35zM82.606 4.86c.286-.165.69-.26 1.11-.26.42 0 .834.097 1.126.267.227.134.358.291.358.437 0 .145-.127.298-.35.427-.575.333-1.657.33-2.235-.005-.228-.134-.359-.29-.359-.436 0-.145.127-.301.35-.43zM78.17 9.445c-.575.334-1.656.33-2.235-.004-.228-.134-.358-.29-.358-.437 0-.146.127-.298.35-.426.285-.166.69-.26 1.11-.26.419 0 .834.096 1.124.266.228.134.359.29.359.436 0 .145-.125.297-.35.425z" fill="url(#v)"/><path d="M111.253 16.267c-.406-.234-.934-.363-1.494-.363-.562 0-1.08.128-1.48.358-.467.267-.72.648-.72 1.067.002.214.068.422.192.596l-4.222 2.149 3.402 1.913a1.04 1.04 0 0 0-.162.55c0 .416.266.808.728 1.076.406.234.934.363 1.495.363.562 0 1.079-.127 1.479-.359.467-.266.72-.647.72-1.067 0-.42-.266-.809-.728-1.076-.405-.234-.933-.363-1.494-.363-.546 0-1.062.124-1.462.349l-2.454-1.396 3.296-1.627c.444.226.935.34 1.432.333.554 0 1.079-.127 1.48-.358.467-.266.72-.647.72-1.067 0-.42-.264-.81-.728-1.078zm-1.159 5.847c.228.134.359.29.359.436 0 .146-.128.3-.35.428-.286.165-.691.26-1.11.26-.42 0-.834-.097-1.126-.267-.227-.134-.358-.291-.358-.437a.336.336 0 0 1 .076-.193h.004l.02-.036a.942.942 0 0 1 .25-.2c.286-.165.691-.26 1.11-.26.42 0 .837.101 1.125.27zm.8-4.343c-.574.333-1.656.333-2.235-.005-.228-.133-.358-.29-.358-.436 0-.146.128-.298.35-.427.286-.165.69-.26 1.11-.26.42 0 .834.097 1.125.267.228.134.359.29.359.436 0 .145-.131.296-.354.425h.003z" fill="url(#w)"/><path d="M92.502 51.716h-.19a1.354 1.354 0 0 0-.4-.333l-7.357-4.248c-.872-.503-2.393-.44-3.402.14l-6.802 3.93c-.235.128-.442.303-.61.513h-.222v1.478h.006c.028.291.218.567.582.777l7.358 4.248c.87.503 2.392.44 3.4-.14l6.803-3.93c.477-.275.75-.618.815-.955h.017l.002-1.48z" fill="url(#x)"/><path d="m81.467 56.883-7.358-4.248c-.87-.502-.761-1.38.244-1.961l6.803-3.929c1.005-.58 2.526-.643 3.401-.141l7.358 4.249c.87.503.761 1.38-.244 1.961l-6.802 3.929c-1.01.58-2.531.642-3.402.14z" fill="url(#y)"/><path style="mix-blend-mode:color-dodge" d="m91.67 52.662-6.802 3.929c-1.006.58-2.527.644-3.401.141l-7.358-4.249c-.35-.2-.54-.466-.578-.743-.054.362.134.715.578.971l7.358 4.249c.87.502 2.392.44 3.4-.141l6.803-3.929c.6-.347.88-.8.822-1.218-.052.349-.329.705-.822.99z" fill="url(#z)"/><path d="m90.887 53.817.678-.4 1.094.661a.22.22 0 0 1 .087.101.221.221 0 0 1 .011.133l-.133 1.192-.412-.835c-.08-.1-.179-.184-.29-.249l-1.035-.603z" fill="url(#A)"/><path style="mix-blend-mode:color-dodge" d="M92.267 54.6c-.082-.1-.18-.185-.29-.25l-1.001-.583-.086.05 1.035.6c.112.065.21.15.29.25l.412.834.006-.023-.366-.879z" fill="url(#B)"/><path d="m89.583 54.57.679-.4 1.093.662a.216.216 0 0 1 .098.233l-.133 1.192-.411-.835c-.081-.1-.18-.184-.29-.248l-1.036-.603z" fill="url(#C)"/><path style="mix-blend-mode:color-dodge" d="M90.962 55.352c-.08-.1-.18-.183-.29-.248l-1-.584-.087.05 1.036.601c.111.065.21.149.29.249l.412.835.005-.024-.366-.879z" fill="url(#D)"/><path d="m88.279 55.324.678-.4 1.094.661a.217.217 0 0 1 .098.234l-.133 1.191-.411-.835c-.081-.1-.18-.184-.29-.248l-1.036-.603z" fill="url(#E)"/><path style="mix-blend-mode:color-dodge" d="M89.658 56.106c-.08-.1-.18-.184-.29-.249l-1-.583-.087.05 1.036.6c.111.065.21.15.29.25l.412.834.005-.022-.366-.88z" fill="url(#F)"/><path d="m86.975 56.077.678-.4 1.094.661a.22.22 0 0 1 .099.233l-.133 1.192-.412-.835c-.081-.1-.18-.184-.29-.248l-1.036-.603z" fill="url(#G)"/><path style="mix-blend-mode:color-dodge" d="M88.355 56.86c-.082-.1-.18-.185-.292-.25l-1-.583-.086.05 1.036.6c.11.065.209.15.29.25l.412.834.005-.023-.365-.878z" fill="url(#H)"/><path d="m85.671 56.83.678-.4 1.094.662a.215.215 0 0 1 .098.234l-.133 1.191-.411-.835c-.082-.1-.18-.184-.29-.248l-1.036-.603z" fill="url(#I)"/><path style="mix-blend-mode:color-dodge" d="M87.05 57.613a1.06 1.06 0 0 0-.29-.249l-1-.584-.087.05 1.036.601c.11.065.21.15.29.249l.412.835.005-.024-.365-.878z" fill="url(#J)"/><path d="m84.368 57.585.678-.4 1.093.66c.039.024.07.06.087.102a.212.212 0 0 1 .011.133l-.133 1.192-.412-.835c-.08-.1-.179-.185-.29-.25l-1.034-.602z" fill="url(#K)"/><path style="mix-blend-mode:color-dodge" d="M85.746 58.366a1.06 1.06 0 0 0-.29-.249l-1-.583-.087.05 1.036.6c.111.065.209.15.29.25l.412.834.005-.023-.366-.879z" fill="url(#L)"/><path d="m75.173 53.817-.679-.4-1.093.661a.212.212 0 0 0-.087.101.212.212 0 0 0-.011.133l.133 1.192.411-.835c.081-.1.18-.184.29-.249l1.036-.603z" fill="url(#M)"/><path style="mix-blend-mode:color-dodge" d="M73.793 54.6c.081-.1.18-.185.29-.25l1.001-.583.087.05-1.036.6c-.111.065-.21.15-.29.25l-.412.834-.005-.023.365-.879z" fill="url(#N)"/><path d="m76.477 54.57-.679-.4-1.093.662a.216.216 0 0 0-.098.233l.133 1.192.411-.835c.081-.1.18-.184.29-.248l1.036-.603z" fill="url(#O)"/><path style="mix-blend-mode:color-dodge" d="M75.098 55.352c.08-.1.18-.183.29-.248l1-.584.087.05-1.036.601a1.06 1.06 0 0 0-.29.249l-.412.835-.005-.024.366-.879z" fill="url(#P)"/><path d="m77.78 55.324-.678-.4-1.093.661a.217.217 0 0 0-.099.234l.133 1.191.412-.835c.08-.1.179-.184.29-.248l1.036-.603z" fill="url(#Q)"/><path style="mix-blend-mode:color-dodge" d="M76.401 56.106c.082-.1.18-.184.291-.249l1-.583.087.05-1.036.6c-.112.065-.21.15-.29.25l-.412.834-.006-.022.366-.88z" fill="url(#R)"/><path d="m79.085 56.077-.68-.4-1.092.661a.22.22 0 0 0-.088.1.22.22 0 0 0-.011.133l.133 1.192.412-.835c.08-.1.179-.184.29-.248l1.036-.603z" fill="url(#S)"/><path style="mix-blend-mode:color-dodge" d="M77.705 56.86c.081-.1.18-.184.29-.25l1.001-.583.087.05-1.037.6c-.11.065-.21.15-.29.25l-.411.834-.006-.023.366-.878z" fill="url(#T)"/><path d="m80.388 56.83-.678-.4-1.093.662a.216.216 0 0 0-.1.233l.135 1.193.411-.836c.081-.1.18-.184.29-.248l1.035-.603z" fill="url(#U)"/><path style="mix-blend-mode:color-dodge" d="M79.01 57.613c.08-.1.179-.184.29-.249l1-.584.087.05-1.036.601c-.112.065-.21.15-.29.249l-.412.835-.006-.024.367-.878z" fill="url(#V)"/><path d="m81.692 57.585-.678-.4-1.093.66a.217.217 0 0 0-.099.234l.133 1.193.412-.835c.081-.1.18-.185.291-.25l1.034-.602z" fill="url(#W)"/><path style="mix-blend-mode:color-dodge" d="M80.314 58.366c.08-.1.179-.184.29-.249l1-.583.087.05-1.036.6c-.111.065-.21.15-.29.25l-.412.834-.006-.023.367-.879z" fill="url(#X)"/><path d="M35.968 40.225c-1.033.371-3.075.981-5.487.981-2.704 0-4.93-.69-6.68-2.36-1.537-1.484-2.492-3.867-2.492-6.653.026-5.328 3.685-9.225 9.676-9.225 2.067 0 3.684.45 4.453.822l-.557 1.882c-.954-.424-2.147-.769-3.95-.769-4.347 0-7.183 2.704-7.183 7.184 0 4.535 2.73 7.21 6.892 7.21 1.511 0 2.545-.212 3.075-.477v-5.328h-3.631v-1.856h5.884v8.59zM40.849 35.03c.052 3.154 2.067 4.453 4.401 4.453 1.667 0 2.678-.291 3.553-.663l.4 1.667c-.822.372-2.227.796-4.268.796-3.95 0-6.309-2.601-6.309-6.469 0-3.868 2.28-6.918 6.017-6.918 4.188 0 5.302 3.684 5.302 6.043-.004.364-.03.727-.08 1.087l-9.016.003zm6.839-1.668c.026-1.484-.61-3.79-3.234-3.79-2.36 0-3.393 2.173-3.579 3.79h6.813z" fill="#292929"/><path d="M133.689 54.117h-.146a1.054 1.054 0 0 0-.308-.258l-5.682-3.282c-.673-.388-1.847-.34-2.624.11l-5.253 3.03c-.181.1-.34.237-.467.4h-.173v1.141h.005c.022.225.168.438.449.6l5.683 3.28c.672.39 1.847.34 2.624-.108l5.254-3.034c.37-.213.58-.477.63-.738h.013l-.005-1.14z" fill="url(#Y)"/><path d="m125.168 58.103-5.683-3.28c-.672-.389-.588-1.068.19-1.515l5.254-3.035c.777-.448 1.951-.497 2.624-.108l5.682 3.28c.673.389.588 1.068-.188 1.515l-5.255 3.035c-.777.448-1.951.496-2.624.108z" fill="url(#Z)"/><path style="mix-blend-mode:color-dodge" d="m133.047 54.843-5.255 3.034c-.777.448-1.951.497-2.623.109l-5.683-3.281c-.271-.156-.416-.358-.447-.574-.041.279.104.552.447.75l5.683 3.281c.672.388 1.846.34 2.623-.109l5.255-3.034c.467-.267.68-.619.634-.94-.04.268-.253.544-.634.764z" fill="url(#aa)"/><path d="m132.442 55.735.524-.309.845.511c.03.019.053.046.066.078a.165.165 0 0 1 .01.103l-.102.92-.318-.645a.838.838 0 0 0-.225-.192l-.8-.466z" fill="url(#ab)"/><path style="mix-blend-mode:color-dodge" d="M133.507 56.339a.819.819 0 0 0-.224-.192l-.774-.451-.066.04.8.466c.086.05.162.115.224.192l.318.645.004-.017-.282-.683z" fill="url(#ac)"/><path d="m131.435 56.318.524-.308.844.51c.03.018.054.046.068.078a.171.171 0 0 1 .008.103l-.102.92-.318-.645a.804.804 0 0 0-.224-.192l-.8-.466z" fill="url(#ad)"/><path style="mix-blend-mode:color-dodge" d="M132.5 56.918a.807.807 0 0 0-.224-.192l-.773-.45-.067.038.8.467c.086.05.162.115.224.192l.319.645.004-.018-.283-.682z" fill="url(#ae)"/><path d="m130.429 56.899.523-.309.845.511a.167.167 0 0 1 .076.18l-.102.92-.318-.645a.825.825 0 0 0-.225-.192l-.799-.465z" fill="url(#af)"/><path style="mix-blend-mode:color-dodge" d="M131.493 57.502a.812.812 0 0 0-.224-.192l-.774-.45-.066.039.8.467c.086.05.162.115.224.192l.318.645.004-.018-.282-.683z" fill="url(#ag)"/><path d="m129.422 57.48.523-.308.845.51a.168.168 0 0 1 .076.181l-.102.92-.319-.644a.8.8 0 0 0-.224-.193l-.799-.466z" fill="url(#ah)"/><path style="mix-blend-mode:color-dodge" d="M130.486 58.085a.794.794 0 0 0-.224-.193l-.773-.45-.067.038.8.467a.8.8 0 0 1 .224.192l.319.645.004-.018-.283-.681z" fill="url(#ai)"/><path d="m128.412 58.062.523-.308.845.51c.03.019.054.046.067.078a.164.164 0 0 1 .01.103l-.103.92-.317-.645a.844.844 0 0 0-.225-.192l-.8-.466z" fill="url(#aj)"/><path style="mix-blend-mode:color-dodge" d="M129.479 58.666a.8.8 0 0 0-.224-.192l-.774-.45-.066.038.8.467a.83.83 0 0 1 .225.192l.317.645.004-.018-.282-.682z" fill="url(#ak)"/><path d="m127.408 58.644.523-.308.844.51a.165.165 0 0 1 .077.181l-.103.92-.317-.645a.844.844 0 0 0-.224-.192l-.8-.466z" fill="url(#al)"/><path style="mix-blend-mode:color-dodge" d="M128.473 59.248a.805.805 0 0 0-.224-.192l-.774-.45-.067.038.8.467a.84.84 0 0 1 .224.192l.317.645.004-.018-.28-.682z" fill="url(#am)"/><path d="m120.307 55.735-.524-.309-.844.511a.17.17 0 0 0-.068.078.172.172 0 0 0-.008.103l.102.92.318-.645a.807.807 0 0 1 .224-.192l.8-.466z" fill="url(#an)"/><path style="mix-blend-mode:color-dodge" d="M119.243 56.339a.807.807 0 0 1 .224-.192l.773-.451.067.04-.8.466a.805.805 0 0 0-.224.192l-.319.645-.004-.017.283-.683z" fill="url(#ao)"/><path d="m121.313 56.318-.523-.308-.844.51a.165.165 0 0 0-.076.18l.102.921.318-.645a.8.8 0 0 1 .224-.192l.799-.466z" fill="url(#ap)"/><path style="mix-blend-mode:color-dodge" d="M120.249 56.918a.8.8 0 0 1 .224-.192l.774-.45.067.038-.801.467a.8.8 0 0 0-.224.192l-.318.645-.004-.018.282-.682z" fill="url(#aq)"/><path d="m122.321 56.899-.524-.309-.844.511a.169.169 0 0 0-.068.078.17.17 0 0 0-.008.102l.102.92.318-.645a.812.812 0 0 1 .224-.192l.8-.465z" fill="url(#ar)"/><path style="mix-blend-mode:color-dodge" d="M121.257 57.502a.807.807 0 0 1 .224-.192l.773-.45.067.039-.8.467a.817.817 0 0 0-.224.192l-.318.645-.004-.018.282-.683z" fill="url(#as)"/><path d="m123.327 57.48-.523-.308-.844.51a.165.165 0 0 0-.077.181l.103.92.317-.644a.842.842 0 0 1 .224-.193l.8-.466z" fill="url(#at)"/><path style="mix-blend-mode:color-dodge" d="M122.263 58.085a.805.805 0 0 1 .224-.193l.774-.45.067.038-.801.467a.84.84 0 0 0-.224.192l-.317.645-.004-.018.281-.681z" fill="url(#au)"/><path d="m124.335 58.062-.524-.308-.845.51a.175.175 0 0 0-.067.078.17.17 0 0 0-.009.103l.103.92.318-.645a.817.817 0 0 1 .224-.192l.8-.466z" fill="url(#av)"/><path style="mix-blend-mode:color-dodge" d="M123.27 58.666a.812.812 0 0 1 .224-.192l.774-.45.067.038-.8.467a.817.817 0 0 0-.224.192l-.318.645-.004-.018.281-.682z" fill="url(#aw)"/><path d="m125.345 58.644-.524-.308-.845.51a.17.17 0 0 0-.076.181l.103.92.317-.645a.844.844 0 0 1 .224-.192l.801-.466z" fill="url(#ax)"/><path style="mix-blend-mode:color-dodge" d="M124.277 59.248a.805.805 0 0 1 .224-.192l.774-.45.067.038-.8.467a.825.825 0 0 0-.224.192l-.317.645-.005-.018.281-.682z" fill="url(#ay)"/></g><defs><linearGradient id="E" x1="88.931" y1="55.054" x2="90.242" y2="57.172" gradientUnits="userSpaceOnUse"><stop offset=".06" stop-color="#200041"/><stop offset=".26" stop-color="#210243"/><stop offset=".36" stop-color="#25084B"/><stop offset=".43" stop-color="#2C1358"/><stop offset=".47" stop-color="#311B61"/><stop offset=".49" stop-color="#351F65"/><stop offset=".52" stop-color="#432C73"/><stop offset=".53" stop-color="#493279"/><stop offset=".54" stop-color="#452E75"/><stop offset=".59" stop-color="#362066"/><stop offset=".63" stop-color="#311B61"/><stop offset=".67" stop-color="#2A1155"/><stop offset=".75" stop-color="#230446"/><stop offset=".81" stop-color="#200041"/><stop offset="1" stop-color="#200041"/></linearGradient><linearGradient id="b" x1="67.073" y1="47.791" x2="71.086" y2="14.913" gradientUnits="userSpaceOnUse"><stop stop-color="#9A1743"/><stop offset="1" stop-color="#C73E2C"/></linearGradient><linearGradient id="f" x1="139.391" y1="46.846" x2="139.185" y2="11.21" gradientUnits="userSpaceOnUse"><stop stop-color="#DBCCFF"/><stop offset="1" stop-color="#D1BBFF"/></linearGradient><linearGradient id="g" x1="139.397" y1="48.236" x2="139.191" y2="12.599" gradientUnits="userSpaceOnUse"><stop stop-color="#9590E1"/><stop offset="1" stop-color="#7760AC"/></linearGradient><linearGradient id="h" x1="139.346" y1="39.377" x2="139.259" y2="24.355" gradientUnits="userSpaceOnUse"><stop stop-color="#B5A6E7"/><stop offset="1" stop-color="#7760BF"/></linearGradient><linearGradient id="i" x1="137.521" y1="24.154" x2="141.785" y2="24.111" gradientUnits="userSpaceOnUse"><stop stop-color="#8B8BE0"/><stop offset="1" stop-color="#A177B7"/></linearGradient><linearGradient id="j" x1="139.663" y1="25.122" x2="139.637" y2="22.541" gradientUnits="userSpaceOnUse"><stop stop-color="#fff"/><stop offset="1" stop-color="#A177B7"/></linearGradient><linearGradient id="k" x1="142.07" y1="40.365" x2="141.905" y2="23.805" gradientUnits="userSpaceOnUse"><stop/><stop offset="1" stop-color="#fff"/></linearGradient><linearGradient id="l" x1="290.704" y1="-2.059" x2="-149.933" y2="71.042" gradientUnits="userSpaceOnUse"><stop offset=".03" stop-color="#7C1DC9"/><stop offset=".21" stop-color="#6E41D2"/><stop offset=".62" stop-color="#4C9BE8"/><stop offset="1" stop-color="#2AF6FF"/></linearGradient><linearGradient id="m" x1="185.129" y1="50.473" x2="-71.669" y2="93.075" gradientUnits="userSpaceOnUse"><stop offset=".03" stop-color="#7C1DC9"/><stop offset=".21" stop-color="#6E41D2"/><stop offset=".62" stop-color="#4C9BE8"/><stop offset="1" stop-color="#2AF6FF"/></linearGradient><linearGradient id="n" x1="185.283" y1="40.38" x2="83.196" y2="76.04" gradientUnits="userSpaceOnUse"><stop offset=".03" stop-color="#7C1DC9"/><stop offset=".21" stop-color="#6E41D2"/><stop offset=".62" stop-color="#4C9BE8"/><stop offset="1" stop-color="#2AF6FF"/></linearGradient><linearGradient id="o" x1="93.996" y1="37.834" x2="-28.602" y2="80.609" gradientUnits="userSpaceOnUse"><stop offset=".03" stop-color="#7C1DC9"/><stop offset=".21" stop-color="#6E41D2"/><stop offset=".62" stop-color="#4C9BE8"/><stop offset="1" stop-color="#2AF6FF"/></linearGradient><linearGradient id="p" x1="87.863" y1="1.184" x2="-168.935" y2="43.787" gradientUnits="userSpaceOnUse"><stop offset=".03" stop-color="#7C1DC9"/><stop offset=".21" stop-color="#6E41D2"/><stop offset=".62" stop-color="#4C9BE8"/><stop offset="1" stop-color="#2AF6FF"/></linearGradient><linearGradient id="q" x1="169.313" y1="46.493" x2="-54.719" y2="83.659" gradientUnits="userSpaceOnUse"><stop offset=".03" stop-color="#7C1DC9"/><stop offset=".21" stop-color="#6E41D2"/><stop offset=".62" stop-color="#4C9BE8"/><stop offset="1" stop-color="#2AF6FF"/></linearGradient><linearGradient id="r" x1="99.655" y1="17.369" x2="-263.95" y2="77.69" gradientUnits="userSpaceOnUse"><stop offset=".03" stop-color="#7C1DC9"/><stop offset=".21" stop-color="#6E41D2"/><stop offset=".62" stop-color="#4C9BE8"/><stop offset="1" stop-color="#2AF6FF"/></linearGradient><linearGradient id="s" x1="109.022" y1="41.405" x2="-5.373" y2="69.649" gradientUnits="userSpaceOnUse"><stop offset=".03" stop-color="#7C1DC9"/><stop offset=".21" stop-color="#6E41D2"/><stop offset=".62" stop-color="#4C9BE8"/><stop offset="1" stop-color="#2AF6FF"/></linearGradient><linearGradient id="t" x1="204.284" y1="20.594" x2="-240.209" y2="94.335" gradientUnits="userSpaceOnUse"><stop offset=".03" stop-color="#7C1DC9"/><stop offset=".21" stop-color="#6E41D2"/><stop offset=".62" stop-color="#4C9BE8"/><stop offset="1" stop-color="#2AF6FF"/></linearGradient><linearGradient id="u" x1="102.832" y1="47.063" x2="-29.551" y2="80.199" gradientUnits="userSpaceOnUse"><stop offset=".03" stop-color="#7C1DC9"/><stop offset=".21" stop-color="#6E41D2"/><stop offset=".62" stop-color="#4C9BE8"/><stop offset="1" stop-color="#2AF6FF"/></linearGradient><linearGradient id="v" x1="125.989" y1="-.413" x2="-130.811" y2="42.19" gradientUnits="userSpaceOnUse"><stop offset=".03" stop-color="#7C1DC9"/><stop offset=".21" stop-color="#6E41D2"/><stop offset=".62" stop-color="#4C9BE8"/><stop offset="1" stop-color="#2AF6FF"/></linearGradient><linearGradient id="w" x1="154.962" y1="-4.904" x2="25.261" y2="65.784" gradientUnits="userSpaceOnUse"><stop offset=".03" stop-color="#7C1DC9"/><stop offset=".21" stop-color="#6E41D2"/><stop offset=".62" stop-color="#4C9BE8"/><stop offset="1" stop-color="#2AF6FF"/></linearGradient><linearGradient id="x" x1="73.521" y1="52.679" x2="92.502" y2="52.679" gradientUnits="userSpaceOnUse"><stop offset=".06" stop-color="#200041"/><stop offset=".26" stop-color="#210243"/><stop offset=".36" stop-color="#25084B"/><stop offset=".43" stop-color="#2C1358"/><stop offset=".47" stop-color="#311B61"/><stop offset=".49" stop-color="#351F65"/><stop offset=".52" stop-color="#432C73"/><stop offset=".53" stop-color="#493279"/><stop offset=".54" stop-color="#452E75"/><stop offset=".59" stop-color="#362066"/><stop offset=".63" stop-color="#311B61"/><stop offset=".67" stop-color="#2A1155"/><stop offset=".75" stop-color="#230446"/><stop offset=".81" stop-color="#200041"/><stop offset="1" stop-color="#200041"/></linearGradient><linearGradient id="y" x1="77.468" y1="58.805" x2="106.723" y2="21.543" gradientUnits="userSpaceOnUse"><stop stop-color="#311B61"/><stop offset=".41" stop-color="#290F52"/><stop offset="1" stop-color="#200041"/></linearGradient><linearGradient id="A" x1="91.538" y1="53.547" x2="92.85" y2="55.665" gradientUnits="userSpaceOnUse"><stop offset=".06" stop-color="#200041"/><stop offset=".26" stop-color="#210243"/><stop offset=".36" stop-color="#25084B"/><stop offset=".43" stop-color="#2C1358"/><stop offset=".47" stop-color="#311B61"/><stop offset=".49" stop-color="#351F65"/><stop offset=".52" stop-color="#432C73"/><stop offset=".53" stop-color="#493279"/><stop offset=".54" stop-color="#452E75"/><stop offset=".59" stop-color="#362066"/><stop offset=".63" stop-color="#311B61"/><stop offset=".67" stop-color="#2A1155"/><stop offset=".75" stop-color="#230446"/><stop offset=".81" stop-color="#200041"/><stop offset="1" stop-color="#200041"/></linearGradient><linearGradient id="C" x1="90.235" y1="54.301" x2="91.546" y2="56.419" gradientUnits="userSpaceOnUse"><stop offset=".06" stop-color="#200041"/><stop offset=".26" stop-color="#210243"/><stop offset=".36" stop-color="#25084B"/><stop offset=".43" stop-color="#2C1358"/><stop offset=".47" stop-color="#311B61"/><stop offset=".49" stop-color="#351F65"/><stop offset=".52" stop-color="#432C73"/><stop offset=".53" stop-color="#493279"/><stop offset=".54" stop-color="#452E75"/><stop offset=".59" stop-color="#362066"/><stop offset=".63" stop-color="#311B61"/><stop offset=".67" stop-color="#2A1155"/><stop offset=".75" stop-color="#230446"/><stop offset=".81" stop-color="#200041"/><stop offset="1" stop-color="#200041"/></linearGradient><linearGradient id="e" x1="63.893" y1="40.943" x2="66.45" y2="19.992" gradientUnits="userSpaceOnUse"><stop stop-color="#E03347"/><stop offset="1" stop-color="#FF9027"/></linearGradient><linearGradient id="G" x1="87.627" y1="55.808" x2="88.939" y2="57.925" gradientUnits="userSpaceOnUse"><stop offset=".06" stop-color="#200041"/><stop offset=".26" stop-color="#210243"/><stop offset=".36" stop-color="#25084B"/><stop offset=".43" stop-color="#2C1358"/><stop offset=".47" stop-color="#311B61"/><stop offset=".49" stop-color="#351F65"/><stop offset=".52" stop-color="#432C73"/><stop offset=".53" stop-color="#493279"/><stop offset=".54" stop-color="#452E75"/><stop offset=".59" stop-color="#362066"/><stop offset=".63" stop-color="#311B61"/><stop offset=".67" stop-color="#2A1155"/><stop offset=".75" stop-color="#230446"/><stop offset=".81" stop-color="#200041"/><stop offset="1" stop-color="#200041"/></linearGradient><linearGradient id="I" x1="86.323" y1="56.561" x2="87.634" y2="58.679" gradientUnits="userSpaceOnUse"><stop offset=".06" stop-color="#200041"/><stop offset=".26" stop-color="#210243"/><stop offset=".36" stop-color="#25084B"/><stop offset=".43" stop-color="#2C1358"/><stop offset=".47" stop-color="#311B61"/><stop offset=".49" stop-color="#351F65"/><stop offset=".52" stop-color="#432C73"/><stop offset=".53" stop-color="#493279"/><stop offset=".54" stop-color="#452E75"/><stop offset=".59" stop-color="#362066"/><stop offset=".63" stop-color="#311B61"/><stop offset=".67" stop-color="#2A1155"/><stop offset=".75" stop-color="#230446"/><stop offset=".81" stop-color="#200041"/><stop offset="1" stop-color="#200041"/></linearGradient><linearGradient id="K" x1="85.019" y1="57.314" x2="86.331" y2="59.432" gradientUnits="userSpaceOnUse"><stop offset=".06" stop-color="#200041"/><stop offset=".26" stop-color="#210243"/><stop offset=".36" stop-color="#25084B"/><stop offset=".43" stop-color="#2C1358"/><stop offset=".47" stop-color="#311B61"/><stop offset=".49" stop-color="#351F65"/><stop offset=".52" stop-color="#432C73"/><stop offset=".53" stop-color="#493279"/><stop offset=".54" stop-color="#452E75"/><stop offset=".59" stop-color="#362066"/><stop offset=".63" stop-color="#311B61"/><stop offset=".67" stop-color="#2A1155"/><stop offset=".75" stop-color="#230446"/><stop offset=".81" stop-color="#200041"/><stop offset="1" stop-color="#200041"/></linearGradient><linearGradient id="M" x1="74.521" y1="53.547" x2="73.21" y2="55.665" gradientUnits="userSpaceOnUse"><stop offset=".06" stop-color="#200041"/><stop offset=".26" stop-color="#210243"/><stop offset=".36" stop-color="#25084B"/><stop offset=".43" stop-color="#2C1358"/><stop offset=".47" stop-color="#311B61"/><stop offset=".49" stop-color="#351F65"/><stop offset=".52" stop-color="#432C73"/><stop offset=".53" stop-color="#493279"/><stop offset=".54" stop-color="#452E75"/><stop offset=".59" stop-color="#362066"/><stop offset=".63" stop-color="#311B61"/><stop offset=".67" stop-color="#2A1155"/><stop offset=".75" stop-color="#230446"/><stop offset=".81" stop-color="#200041"/><stop offset="1" stop-color="#200041"/></linearGradient><linearGradient id="c" x1="63.63" y1="47.605" x2="67.797" y2="13.465" gradientUnits="userSpaceOnUse"><stop stop-color="#E03347"/><stop offset="1" stop-color="#FF6E27"/></linearGradient><linearGradient id="O" x1="75.825" y1="54.301" x2="74.514" y2="56.419" gradientUnits="userSpaceOnUse"><stop offset=".06" stop-color="#200041"/><stop offset=".26" stop-color="#210243"/><stop offset=".36" stop-color="#25084B"/><stop offset=".43" stop-color="#2C1358"/><stop offset=".47" stop-color="#311B61"/><stop offset=".49" stop-color="#351F65"/><stop offset=".52" stop-color="#432C73"/><stop offset=".53" stop-color="#493279"/><stop offset=".54" stop-color="#452E75"/><stop offset=".59" stop-color="#362066"/><stop offset=".63" stop-color="#311B61"/><stop offset=".67" stop-color="#2A1155"/><stop offset=".75" stop-color="#230446"/><stop offset=".81" stop-color="#200041"/><stop offset="1" stop-color="#200041"/></linearGradient><linearGradient id="Q" x1="77.129" y1="55.054" x2="75.817" y2="57.172" gradientUnits="userSpaceOnUse"><stop offset=".06" stop-color="#200041"/><stop offset=".26" stop-color="#210243"/><stop offset=".36" stop-color="#25084B"/><stop offset=".43" stop-color="#2C1358"/><stop offset=".47" stop-color="#311B61"/><stop offset=".49" stop-color="#351F65"/><stop offset=".52" stop-color="#432C73"/><stop offset=".53" stop-color="#493279"/><stop offset=".54" stop-color="#452E75"/><stop offset=".59" stop-color="#362066"/><stop offset=".63" stop-color="#311B61"/><stop offset=".67" stop-color="#2A1155"/><stop offset=".75" stop-color="#230446"/><stop offset=".81" stop-color="#200041"/><stop offset="1" stop-color="#200041"/></linearGradient><linearGradient id="S" x1="78.433" y1="55.808" x2="77.122" y2="57.925" gradientUnits="userSpaceOnUse"><stop offset=".06" stop-color="#200041"/><stop offset=".26" stop-color="#210243"/><stop offset=".36" stop-color="#25084B"/><stop offset=".43" stop-color="#2C1358"/><stop offset=".47" stop-color="#311B61"/><stop offset=".49" stop-color="#351F65"/><stop offset=".52" stop-color="#432C73"/><stop offset=".53" stop-color="#493279"/><stop offset=".54" stop-color="#452E75"/><stop offset=".59" stop-color="#362066"/><stop offset=".63" stop-color="#311B61"/><stop offset=".67" stop-color="#2A1155"/><stop offset=".75" stop-color="#230446"/><stop offset=".81" stop-color="#200041"/><stop offset="1" stop-color="#200041"/></linearGradient><linearGradient id="U" x1="79.737" y1="56.561" x2="78.425" y2="58.679" gradientUnits="userSpaceOnUse"><stop offset=".06" stop-color="#200041"/><stop offset=".26" stop-color="#210243"/><stop offset=".36" stop-color="#25084B"/><stop offset=".43" stop-color="#2C1358"/><stop offset=".47" stop-color="#311B61"/><stop offset=".49" stop-color="#351F65"/><stop offset=".52" stop-color="#432C73"/><stop offset=".53" stop-color="#493279"/><stop offset=".54" stop-color="#452E75"/><stop offset=".59" stop-color="#362066"/><stop offset=".63" stop-color="#311B61"/><stop offset=".67" stop-color="#2A1155"/><stop offset=".75" stop-color="#230446"/><stop offset=".81" stop-color="#200041"/><stop offset="1" stop-color="#200041"/></linearGradient><linearGradient id="W" x1="81.041" y1="57.314" x2="79.729" y2="59.432" gradientUnits="userSpaceOnUse"><stop offset=".06" stop-color="#200041"/><stop offset=".26" stop-color="#210243"/><stop offset=".36" stop-color="#25084B"/><stop offset=".43" stop-color="#2C1358"/><stop offset=".47" stop-color="#311B61"/><stop offset=".49" stop-color="#351F65"/><stop offset=".52" stop-color="#432C73"/><stop offset=".53" stop-color="#493279"/><stop offset=".54" stop-color="#452E75"/><stop offset=".59" stop-color="#362066"/><stop offset=".63" stop-color="#311B61"/><stop offset=".67" stop-color="#2A1155"/><stop offset=".75" stop-color="#230446"/><stop offset=".81" stop-color="#200041"/><stop offset="1" stop-color="#200041"/></linearGradient><linearGradient id="Y" x1="119.031" y1="54.855" x2="133.689" y2="54.855" gradientUnits="userSpaceOnUse"><stop offset=".06" stop-color="#200041"/><stop offset=".26" stop-color="#210243"/><stop offset=".36" stop-color="#25084B"/><stop offset=".43" stop-color="#2C1358"/><stop offset=".47" stop-color="#311B61"/><stop offset=".49" stop-color="#351F65"/><stop offset=".52" stop-color="#432C73"/><stop offset=".53" stop-color="#493279"/><stop offset=".54" stop-color="#452E75"/><stop offset=".59" stop-color="#362066"/><stop offset=".63" stop-color="#311B61"/><stop offset=".67" stop-color="#2A1155"/><stop offset=".75" stop-color="#230446"/><stop offset=".81" stop-color="#200041"/><stop offset="1" stop-color="#200041"/></linearGradient><linearGradient id="Z" x1="122.079" y1="59.587" x2="144.671" y2="30.811" gradientUnits="userSpaceOnUse"><stop stop-color="#311B61"/><stop offset=".41" stop-color="#290F52"/><stop offset="1" stop-color="#200041"/></linearGradient><linearGradient id="ab" x1="132.945" y1="55.526" x2="133.958" y2="57.162" gradientUnits="userSpaceOnUse"><stop offset=".06" stop-color="#200041"/><stop offset=".26" stop-color="#210243"/><stop offset=".36" stop-color="#25084B"/><stop offset=".43" stop-color="#2C1358"/><stop offset=".47" stop-color="#311B61"/><stop offset=".49" stop-color="#351F65"/><stop offset=".52" stop-color="#432C73"/><stop offset=".53" stop-color="#493279"/><stop offset=".54" stop-color="#452E75"/><stop offset=".59" stop-color="#362066"/><stop offset=".63" stop-color="#311B61"/><stop offset=".67" stop-color="#2A1155"/><stop offset=".75" stop-color="#230446"/><stop offset=".81" stop-color="#200041"/><stop offset="1" stop-color="#200041"/></linearGradient><linearGradient id="ad" x1="131.939" y1="56.109" x2="132.951" y2="57.744" gradientUnits="userSpaceOnUse"><stop offset=".06" stop-color="#200041"/><stop offset=".26" stop-color="#210243"/><stop offset=".36" stop-color="#25084B"/><stop offset=".43" stop-color="#2C1358"/><stop offset=".47" stop-color="#311B61"/><stop offset=".49" stop-color="#351F65"/><stop offset=".52" stop-color="#432C73"/><stop offset=".53" stop-color="#493279"/><stop offset=".54" stop-color="#452E75"/><stop offset=".59" stop-color="#362066"/><stop offset=".63" stop-color="#311B61"/><stop offset=".67" stop-color="#2A1155"/><stop offset=".75" stop-color="#230446"/><stop offset=".81" stop-color="#200041"/><stop offset="1" stop-color="#200041"/></linearGradient><linearGradient id="af" x1="130.931" y1="56.69" x2="131.945" y2="58.325" gradientUnits="userSpaceOnUse"><stop offset=".06" stop-color="#200041"/><stop offset=".26" stop-color="#210243"/><stop offset=".36" stop-color="#25084B"/><stop offset=".43" stop-color="#2C1358"/><stop offset=".47" stop-color="#311B61"/><stop offset=".49" stop-color="#351F65"/><stop offset=".52" stop-color="#432C73"/><stop offset=".53" stop-color="#493279"/><stop offset=".54" stop-color="#452E75"/><stop offset=".59" stop-color="#362066"/><stop offset=".63" stop-color="#311B61"/><stop offset=".67" stop-color="#2A1155"/><stop offset=".75" stop-color="#230446"/><stop offset=".81" stop-color="#200041"/><stop offset="1" stop-color="#200041"/></linearGradient><linearGradient id="ah" x1="129.925" y1="57.272" x2="130.938" y2="58.907" gradientUnits="userSpaceOnUse"><stop offset=".06" stop-color="#200041"/><stop offset=".26" stop-color="#210243"/><stop offset=".36" stop-color="#25084B"/><stop offset=".43" stop-color="#2C1358"/><stop offset=".47" stop-color="#311B61"/><stop offset=".49" stop-color="#351F65"/><stop offset=".52" stop-color="#432C73"/><stop offset=".53" stop-color="#493279"/><stop offset=".54" stop-color="#452E75"/><stop offset=".59" stop-color="#362066"/><stop offset=".63" stop-color="#311B61"/><stop offset=".67" stop-color="#2A1155"/><stop offset=".75" stop-color="#230446"/><stop offset=".81" stop-color="#200041"/><stop offset="1" stop-color="#200041"/></linearGradient><linearGradient id="aj" x1="128.917" y1="57.854" x2="129.931" y2="59.489" gradientUnits="userSpaceOnUse"><stop offset=".06" stop-color="#200041"/><stop offset=".26" stop-color="#210243"/><stop offset=".36" stop-color="#25084B"/><stop offset=".43" stop-color="#2C1358"/><stop offset=".47" stop-color="#311B61"/><stop offset=".49" stop-color="#351F65"/><stop offset=".52" stop-color="#432C73"/><stop offset=".53" stop-color="#493279"/><stop offset=".54" stop-color="#452E75"/><stop offset=".59" stop-color="#362066"/><stop offset=".63" stop-color="#311B61"/><stop offset=".67" stop-color="#2A1155"/><stop offset=".75" stop-color="#230446"/><stop offset=".81" stop-color="#200041"/><stop offset="1" stop-color="#200041"/></linearGradient><linearGradient id="al" x1="127.911" y1="58.435" x2="128.923" y2="60.071" gradientUnits="userSpaceOnUse"><stop offset=".06" stop-color="#200041"/><stop offset=".26" stop-color="#210243"/><stop offset=".36" stop-color="#25084B"/><stop offset=".43" stop-color="#2C1358"/><stop offset=".47" stop-color="#311B61"/><stop offset=".49" stop-color="#351F65"/><stop offset=".52" stop-color="#432C73"/><stop offset=".53" stop-color="#493279"/><stop offset=".54" stop-color="#452E75"/><stop offset=".59" stop-color="#362066"/><stop offset=".63" stop-color="#311B61"/><stop offset=".67" stop-color="#2A1155"/><stop offset=".75" stop-color="#230446"/><stop offset=".81" stop-color="#200041"/><stop offset="1" stop-color="#200041"/></linearGradient><linearGradient id="an" x1="119.804" y1="55.526" x2="118.791" y2="57.162" gradientUnits="userSpaceOnUse"><stop offset=".06" stop-color="#200041"/><stop offset=".26" stop-color="#210243"/><stop offset=".36" stop-color="#25084B"/><stop offset=".43" stop-color="#2C1358"/><stop offset=".47" stop-color="#311B61"/><stop offset=".49" stop-color="#351F65"/><stop offset=".52" stop-color="#432C73"/><stop offset=".53" stop-color="#493279"/><stop offset=".54" stop-color="#452E75"/><stop offset=".59" stop-color="#362066"/><stop offset=".63" stop-color="#311B61"/><stop offset=".67" stop-color="#2A1155"/><stop offset=".75" stop-color="#230446"/><stop offset=".81" stop-color="#200041"/><stop offset="1" stop-color="#200041"/></linearGradient><linearGradient id="ap" x1="120.811" y1="56.109" x2="119.798" y2="57.744" gradientUnits="userSpaceOnUse"><stop offset=".06" stop-color="#200041"/><stop offset=".26" stop-color="#210243"/><stop offset=".36" stop-color="#25084B"/><stop offset=".43" stop-color="#2C1358"/><stop offset=".47" stop-color="#311B61"/><stop offset=".49" stop-color="#351F65"/><stop offset=".52" stop-color="#432C73"/><stop offset=".53" stop-color="#493279"/><stop offset=".54" stop-color="#452E75"/><stop offset=".59" stop-color="#362066"/><stop offset=".63" stop-color="#311B61"/><stop offset=".67" stop-color="#2A1155"/><stop offset=".75" stop-color="#230446"/><stop offset=".81" stop-color="#200041"/><stop offset="1" stop-color="#200041"/></linearGradient><linearGradient id="ar" x1="121.818" y1="56.69" x2="120.805" y2="58.325" gradientUnits="userSpaceOnUse"><stop offset=".06" stop-color="#200041"/><stop offset=".26" stop-color="#210243"/><stop offset=".36" stop-color="#25084B"/><stop offset=".43" stop-color="#2C1358"/><stop offset=".47" stop-color="#311B61"/><stop offset=".49" stop-color="#351F65"/><stop offset=".52" stop-color="#432C73"/><stop offset=".53" stop-color="#493279"/><stop offset=".54" stop-color="#452E75"/><stop offset=".59" stop-color="#362066"/><stop offset=".63" stop-color="#311B61"/><stop offset=".67" stop-color="#2A1155"/><stop offset=".75" stop-color="#230446"/><stop offset=".81" stop-color="#200041"/><stop offset="1" stop-color="#200041"/></linearGradient><linearGradient id="at" x1="122.825" y1="57.272" x2="121.812" y2="58.907" gradientUnits="userSpaceOnUse"><stop offset=".06" stop-color="#200041"/><stop offset=".26" stop-color="#210243"/><stop offset=".36" stop-color="#25084B"/><stop offset=".43" stop-color="#2C1358"/><stop offset=".47" stop-color="#311B61"/><stop offset=".49" stop-color="#351F65"/><stop offset=".52" stop-color="#432C73"/><stop offset=".53" stop-color="#493279"/><stop offset=".54" stop-color="#452E75"/><stop offset=".59" stop-color="#362066"/><stop offset=".63" stop-color="#311B61"/><stop offset=".67" stop-color="#2A1155"/><stop offset=".75" stop-color="#230446"/><stop offset=".81" stop-color="#200041"/><stop offset="1" stop-color="#200041"/></linearGradient><linearGradient id="av" x1="123.831" y1="57.854" x2="122.819" y2="59.489" gradientUnits="userSpaceOnUse"><stop offset=".06" stop-color="#200041"/><stop offset=".26" stop-color="#210243"/><stop offset=".36" stop-color="#25084B"/><stop offset=".43" stop-color="#2C1358"/><stop offset=".47" stop-color="#311B61"/><stop offset=".49" stop-color="#351F65"/><stop offset=".52" stop-color="#432C73"/><stop offset=".53" stop-color="#493279"/><stop offset=".54" stop-color="#452E75"/><stop offset=".59" stop-color="#362066"/><stop offset=".63" stop-color="#311B61"/><stop offset=".67" stop-color="#2A1155"/><stop offset=".75" stop-color="#230446"/><stop offset=".81" stop-color="#200041"/><stop offset="1" stop-color="#200041"/></linearGradient><linearGradient id="ax" x1="124.839" y1="58.435" x2="123.826" y2="60.071" gradientUnits="userSpaceOnUse"><stop offset=".06" stop-color="#200041"/><stop offset=".26" stop-color="#210243"/><stop offset=".36" stop-color="#25084B"/><stop offset=".43" stop-color="#2C1358"/><stop offset=".47" stop-color="#311B61"/><stop offset=".49" stop-color="#351F65"/><stop offset=".52" stop-color="#432C73"/><stop offset=".53" stop-color="#493279"/><stop offset=".54" stop-color="#452E75"/><stop offset=".59" stop-color="#362066"/><stop offset=".63" stop-color="#311B61"/><stop offset=".67" stop-color="#2A1155"/><stop offset=".75" stop-color="#230446"/><stop offset=".81" stop-color="#200041"/><stop offset="1" stop-color="#200041"/></linearGradient><radialGradient id="N" cx="0" cy="0" r="1" gradientUnits="userSpaceOnUse" gradientTransform="matrix(-.8703 0 0 -.8703 74.302 54.636)"><stop stop-color="#fff"/><stop offset="1"/></radialGradient><radialGradient id="L" cx="0" cy="0" r="1" gradientUnits="userSpaceOnUse" gradientTransform="matrix(.8703 0 0 .8703 85.24 58.403)"><stop stop-color="#fff"/><stop offset="1"/></radialGradient><radialGradient id="aa" cx="0" cy="0" r="1" gradientUnits="userSpaceOnUse" gradientTransform="matrix(5.40386 0 0 5.40385 126.36 56.251)"><stop stop-color="#fff"/><stop offset="1"/></radialGradient><radialGradient id="D" cx="0" cy="0" r="1" gradientUnits="userSpaceOnUse" gradientTransform="matrix(.8703 0 0 .8703 90.455 55.39)"><stop stop-color="#fff"/><stop offset="1"/></radialGradient><radialGradient id="ac" cx="0" cy="0" r="1" gradientUnits="userSpaceOnUse" gradientTransform="matrix(.67224 0 0 .67224 133.115 56.367)"><stop stop-color="#fff"/><stop offset="1"/></radialGradient><radialGradient id="z" cx="0" cy="0" r="1" gradientUnits="userSpaceOnUse" gradientTransform="translate(83.011 54.485) scale(6.99774)"><stop stop-color="#fff"/><stop offset="1"/></radialGradient><radialGradient id="ae" cx="0" cy="0" r="1" gradientUnits="userSpaceOnUse" gradientTransform="translate(132.109 56.949) scale(.67223)"><stop stop-color="#fff"/><stop offset="1"/></radialGradient><radialGradient id="F" cx="0" cy="0" r="1" gradientUnits="userSpaceOnUse" gradientTransform="matrix(.8703 0 0 .8703 89.15 56.143)"><stop stop-color="#fff"/><stop offset="1"/></radialGradient><radialGradient id="ag" cx="0" cy="0" r="1" gradientUnits="userSpaceOnUse" gradientTransform="translate(131.101 57.53) scale(.67223)"><stop stop-color="#fff"/><stop offset="1"/></radialGradient><radialGradient id="P" cx="0" cy="0" r="1" gradientUnits="userSpaceOnUse" gradientTransform="matrix(-.8703 0 0 -.8703 75.605 55.39)"><stop stop-color="#fff"/><stop offset="1"/></radialGradient><radialGradient id="ai" cx="0" cy="0" r="1" gradientUnits="userSpaceOnUse" gradientTransform="matrix(.67223 0 0 .67223 130.095 58.113)"><stop stop-color="#fff"/><stop offset="1"/></radialGradient><radialGradient id="d" cx="0" cy="0" r="1" gradientUnits="userSpaceOnUse" gradientTransform="rotate(6.96 -164.515 607.524) scale(9.31853)"><stop stop-color="#C73E2C"/><stop offset="1" stop-color="#9A1743"/></radialGradient><radialGradient id="ak" cx="0" cy="0" r="1" gradientUnits="userSpaceOnUse" gradientTransform="matrix(.67223 0 0 .67223 129.087 58.694)"><stop stop-color="#fff"/><stop offset="1"/></radialGradient><radialGradient id="R" cx="0" cy="0" r="1" gradientUnits="userSpaceOnUse" gradientTransform="matrix(-.8703 0 0 -.8703 76.91 56.143)"><stop stop-color="#fff"/><stop offset="1"/></radialGradient><radialGradient id="am" cx="0" cy="0" r="1" gradientUnits="userSpaceOnUse" gradientTransform="matrix(.67224 0 0 .67223 128.081 59.276)"><stop stop-color="#fff"/><stop offset="1"/></radialGradient><radialGradient id="H" cx="0" cy="0" r="1" gradientUnits="userSpaceOnUse" gradientTransform="matrix(.8703 0 0 .8703 87.847 56.896)"><stop stop-color="#fff"/><stop offset="1"/></radialGradient><radialGradient id="ao" cx="0" cy="0" r="1" gradientUnits="userSpaceOnUse" gradientTransform="rotate(179.86 59.817 28.183) scale(.67223)"><stop stop-color="#fff"/><stop offset="1"/></radialGradient><radialGradient id="T" cx="0" cy="0" r="1" gradientUnits="userSpaceOnUse" gradientTransform="matrix(-.8703 0 0 -.8703 78.213 56.896)"><stop stop-color="#fff"/><stop offset="1"/></radialGradient><radialGradient id="aq" cx="0" cy="0" r="1" gradientUnits="userSpaceOnUse" gradientTransform="matrix(-.67223 0 0 -.67223 120.641 56.949)"><stop stop-color="#fff"/><stop offset="1"/></radialGradient><radialGradient id="B" cx="0" cy="0" r="1" gradientUnits="userSpaceOnUse" gradientTransform="matrix(.8703 0 0 .8703 91.759 54.636)"><stop stop-color="#fff"/><stop offset="1"/></radialGradient><radialGradient id="as" cx="0" cy="0" r="1" gradientUnits="userSpaceOnUse" gradientTransform="matrix(-.67223 0 0 -.67223 121.648 57.53)"><stop stop-color="#fff"/><stop offset="1"/></radialGradient><radialGradient id="V" cx="0" cy="0" r="1" gradientUnits="userSpaceOnUse" gradientTransform="rotate(180 39.758 28.825) scale(.8703)"><stop stop-color="#fff"/><stop offset="1"/></radialGradient><radialGradient id="au" cx="0" cy="0" r="1" gradientUnits="userSpaceOnUse" gradientTransform="matrix(-.67223 0 0 -.67223 122.655 58.113)"><stop stop-color="#fff"/><stop offset="1"/></radialGradient><radialGradient id="J" cx="0" cy="0" r="1" gradientUnits="userSpaceOnUse" gradientTransform="matrix(.8703 0 0 .8703 86.543 57.65)"><stop stop-color="#fff"/><stop offset="1"/></radialGradient><radialGradient id="aw" cx="0" cy="0" r="1" gradientUnits="userSpaceOnUse" gradientTransform="matrix(-.67223 0 0 -.67223 123.662 58.694)"><stop stop-color="#fff"/><stop offset="1"/></radialGradient><radialGradient id="X" cx="0" cy="0" r="1" gradientUnits="userSpaceOnUse" gradientTransform="rotate(180 40.41 29.201) scale(.8703)"><stop stop-color="#fff"/><stop offset="1"/></radialGradient><radialGradient id="ay" cx="0" cy="0" r="1" gradientUnits="userSpaceOnUse" gradientTransform="matrix(-.67223 0 0 -.67223 124.669 59.276)"><stop stop-color="#fff"/><stop offset="1"/></radialGradient><clipPath id="a"><path fill="#fff" d="M0 0h200v62H0z"/></clipPath></defs></svg>