<svg width="128" height="128" viewBox="0 0 128 128" fill="none" xmlns="http://www.w3.org/2000/svg">
<path d="M120.471 0H7.52941C3.37103 0 0 3.37103 0 7.52941V120.471C0 124.629 3.37103 128 7.52941 128H120.471C124.629 128 128 124.629 128 120.471V7.52941C128 3.37103 124.629 0 120.471 0Z" fill="#0084FF"/>
<path d="M22.5401 38.4663V70.3428C22.5401 74.8243 23.6243 78.1493 25.7928 80.3178C28.0094 82.4863 31.0694 83.5705 34.9726 83.5705C38.8277 83.5705 41.8395 82.4863 44.0079 80.3178C46.2246 78.1493 47.3329 74.8243 47.3329 70.3428V38.4663H53.9106V70.2706C53.9106 74.4629 53.0673 78.0048 51.3807 80.8961C49.6941 83.7392 47.4052 85.8594 44.5139 87.2569C41.6708 88.6544 38.4663 89.3531 34.9003 89.3531C31.3344 89.3531 28.1058 88.6544 25.2145 87.2569C22.3714 85.8594 20.1066 83.7392 18.42 80.8961C16.7816 78.0048 15.9624 74.4629 15.9624 70.2706V38.4663H22.5401ZM103.048 53.0674C101.651 50.1279 99.6271 47.863 96.9767 46.2728C94.3264 44.6344 91.2423 43.8152 87.7246 43.8152C84.2069 43.8152 81.0264 44.6344 78.1833 46.2728C75.3884 47.863 73.1718 50.1761 71.5334 53.2119C69.9431 56.1996 69.148 59.6691 69.148 63.6206C69.148 67.572 69.9431 71.0416 71.5334 74.0292C73.1718 77.0169 75.3884 79.3299 78.1833 80.9683C81.0264 82.5586 84.2069 83.3537 87.7246 83.3537C92.6398 83.3537 96.6876 81.8839 99.868 78.9444C103.048 76.005 104.904 72.0294 105.434 67.0179H85.3393V61.669H112.445V66.7287C112.06 70.8729 110.759 74.6798 108.542 78.1493C106.325 81.5707 103.41 84.2933 99.7957 86.3172C96.1816 88.293 92.1579 89.2808 87.7246 89.2808C83.0503 89.2808 78.7857 88.1966 74.9306 86.0281C71.0756 83.8114 68.0156 80.7515 65.7508 76.8482C63.5341 72.945 62.4258 68.5358 62.4258 63.6206C62.4258 58.7054 63.5341 54.2962 65.7508 50.3929C68.0156 46.4415 71.0756 43.3815 74.9306 41.213C78.7857 38.9964 83.0503 37.8881 87.7246 37.8881C93.0735 37.8881 97.7959 39.2132 101.892 41.8636C106.036 44.5139 109.048 48.2485 110.927 53.0674H103.048Z" fill="white"/>
</svg>
