<svg width="428" height="210" fill="none" xmlns="http://www.w3.org/2000/svg"><path fill="#9CA3AF" d="M0 0h428v210H0z"/><path d="M325.016 183.524v2.796h3.048v.9h-3.048v2.88h3.408v.9h-4.5v-8.376h4.5v.9h-3.408zm8.264.78c.8 0 1.448.244 1.944.732.496.48.744 1.176.744 2.088V191h-1.08v-3.72c0-.656-.164-1.156-.492-1.5-.328-.352-.776-.528-1.344-.528-.576 0-1.036.18-1.38.54-.336.36-.504.884-.504 1.572V191h-1.092v-6.576h1.092v.936c.216-.336.508-.596.876-.78a2.774 2.774 0 0 1 1.236-.276zm10.275-1.668c.912 0 1.7.172 2.364.516.672.336 1.184.82 1.536 1.452.36.632.54 1.376.54 2.232 0 .856-.18 1.6-.54 2.232a3.524 3.524 0 0 1-1.536 1.44c-.664.328-1.452.492-2.364.492h-2.604v-8.364h2.604zm0 7.464c1.08 0 1.904-.284 2.472-.852.568-.576.852-1.38.852-2.412 0-1.04-.288-1.852-.864-2.436-.568-.584-1.388-.876-2.46-.876h-1.512v6.576h1.512zm11.881-2.64c0 .208-.012.428-.036.66h-5.256c.04.648.26 1.156.66 1.524.408.36.9.54 1.476.54.472 0 .864-.108 1.176-.324.32-.224.544-.52.672-.888h1.176a2.856 2.856 0 0 1-1.056 1.548c-.528.392-1.184.588-1.968.588-.624 0-1.184-.14-1.68-.42a2.995 2.995 0 0 1-1.152-1.188c-.28-.52-.42-1.12-.42-1.8 0-.68.136-1.276.408-1.788a2.836 2.836 0 0 1 1.14-1.176c.496-.28 1.064-.42 1.704-.42.624 0 1.176.136 1.656.408.48.272.848.648 1.104 1.128.264.472.396 1.008.396 1.608zm-1.128-.228c0-.416-.092-.772-.276-1.068a1.737 1.737 0 0 0-.756-.684c-.312-.16-.66-.24-1.044-.24-.552 0-1.024.176-1.416.528-.384.352-.604.84-.66 1.464h4.152zm4.897 3.876c-.504 0-.956-.084-1.356-.252a2.356 2.356 0 0 1-.948-.72 1.946 1.946 0 0 1-.384-1.068h1.128c.032.328.184.596.456.804.28.208.644.312 1.092.312.416 0 .744-.092.984-.276.24-.184.36-.416.36-.696 0-.288-.128-.5-.384-.636-.256-.144-.652-.284-1.188-.42a9.777 9.777 0 0 1-1.2-.384 2.279 2.279 0 0 1-.792-.588c-.216-.264-.324-.608-.324-1.032 0-.336.1-.644.3-.924.2-.28.484-.5.852-.66a3.003 3.003 0 0 1 1.26-.252c.728 0 1.316.184 1.764.552.448.368.688.872.72 1.512h-1.092a1.12 1.12 0 0 0-.42-.828c-.248-.208-.584-.312-1.008-.312-.392 0-.704.084-.936.252a.779.779 0 0 0-.348.66c0 .216.068.396.204.54.144.136.32.248.528.336.216.08.512.172.888.276.472.128.856.256 1.152.384.296.12.548.304.756.552.216.248.328.572.336.972 0 .36-.1.684-.3.972-.2.288-.484.516-.852.684-.36.16-.776.24-1.248.24zm3.534-3.42c0-.672.136-1.26.408-1.764a2.964 2.964 0 0 1 1.116-1.188 3.11 3.11 0 0 1 1.596-.42c.576 0 1.076.124 1.5.372.424.248.74.56.948.936v-1.2h1.104V191h-1.104v-1.224c-.216.384-.54.704-.972.96-.424.248-.92.372-1.488.372a2.98 2.98 0 0 1-1.584-.432 3.03 3.03 0 0 1-1.116-1.212c-.272-.52-.408-1.112-.408-1.776zm5.568.012c0-.496-.1-.928-.3-1.296a2.065 2.065 0 0 0-.816-.84 2.14 2.14 0 0 0-1.116-.3c-.408 0-.78.096-1.116.288a2.09 2.09 0 0 0-.804.84c-.2.368-.3.8-.3 1.296 0 .504.1.944.3 1.32.2.368.468.652.804.852a2.21 2.21 0 0 0 1.116.288c.408 0 .78-.096 1.116-.288.344-.2.616-.484.816-.852.2-.376.3-.812.3-1.308zm4.041-2.208c.192-.376.464-.668.816-.876.36-.208.796-.312 1.308-.312v1.128h-.288c-1.224 0-1.836.664-1.836 1.992V191h-1.092v-6.576h1.092v1.068zm4.477 0c.192-.376.464-.668.816-.876.36-.208.796-.312 1.308-.312v1.128h-.288c-1.224 0-1.836.664-1.836 1.992V191h-1.092v-6.576h1.092v1.068zm6.252 5.616a3.4 3.4 0 0 1-1.68-.42 3.053 3.053 0 0 1-1.176-1.188c-.28-.52-.42-1.12-.42-1.8 0-.672.144-1.264.432-1.776.296-.52.696-.916 1.2-1.188a3.424 3.424 0 0 1 1.692-.42c.624 0 1.188.14 1.692.42.504.272.9.664 1.188 1.176.296.512.444 1.108.444 1.788 0 .68-.152 1.28-.456 1.8a3.09 3.09 0 0 1-1.212 1.188c-.512.28-1.08.42-1.704.42zm0-.96c.392 0 .76-.092 1.104-.276.344-.184.62-.46.828-.828.216-.368.324-.816.324-1.344 0-.528-.104-.976-.312-1.344a2.003 2.003 0 0 0-.816-.816 2.237 2.237 0 0 0-1.092-.276c-.4 0-.768.092-1.104.276a1.951 1.951 0 0 0-.792.816c-.2.368-.3.816-.3 1.344 0 .536.096.988.288 1.356.2.368.464.644.792.828.328.176.688.264 1.08.264zm5.9-8.028V191h-1.092v-8.88h1.092zm2.953 0V191h-1.092v-8.88h1.092zm4.729 8.988a3.4 3.4 0 0 1-1.68-.42 3.053 3.053 0 0 1-1.176-1.188c-.28-.52-.42-1.12-.42-1.8 0-.672.144-1.264.432-1.776.296-.52.696-.916 1.2-1.188a3.424 3.424 0 0 1 1.692-.42c.624 0 1.188.14 1.692.42.504.272.9.664 1.188 1.176.296.512.444 1.108.444 1.788 0 .68-.152 1.28-.456 1.8a3.09 3.09 0 0 1-1.212 1.188c-.512.28-1.08.42-1.704.42zm0-.96c.392 0 .76-.092 1.104-.276.344-.184.62-.46.828-.828.216-.368.324-.816.324-1.344 0-.528-.104-.976-.312-1.344a2.003 2.003 0 0 0-.816-.816 2.237 2.237 0 0 0-1.092-.276c-.4 0-.768.092-1.104.276a1.951 1.951 0 0 0-.792.816c-.2.368-.3.816-.3 1.344 0 .536.096.988.288 1.356.2.368.464.644.792.828.328.176.688.264 1.08.264z" fill="#4E4E4E"/><path d="M207.431 92.277c2.734 0 5.098.515 7.089 1.547 2.015 1.008 3.55 2.459 4.605 4.354 1.08 1.895 1.62 4.126 1.62 6.693 0 2.567-.54 4.798-1.62 6.693-1.055 1.871-2.59 3.311-4.605 4.318-1.991.984-4.355 1.475-7.089 1.475h-7.809v-25.08h7.809zm0 22.382c3.238 0 5.709-.852 7.412-2.555 1.703-1.727 2.555-4.138 2.555-7.233 0-3.119-.863-5.553-2.591-7.305-1.703-1.751-4.162-2.627-7.376-2.627h-4.534v19.72h4.534zm35.625-7.917c0 .624-.036 1.284-.108 1.979h-15.761c.12 1.943.78 3.467 1.979 4.57 1.224 1.08 2.699 1.62 4.426 1.62 1.415 0 2.591-.324 3.527-.972a5.303 5.303 0 0 0 2.015-2.663h3.526c-.528 1.895-1.583 3.443-3.166 4.642-1.584 1.176-3.551 1.763-5.902 1.763-1.871 0-3.55-.42-5.038-1.259-1.463-.84-2.615-2.027-3.454-3.563-.839-1.559-1.259-3.358-1.259-5.397s.407-3.826 1.223-5.362c.816-1.535 1.955-2.71 3.418-3.526 1.488-.84 3.191-1.26 5.11-1.26 1.871 0 3.527.408 4.966 1.224a8.32 8.32 0 0 1 3.31 3.382c.792 1.416 1.188 3.023 1.188 4.822zm-3.383-.684c0-1.247-.276-2.314-.827-3.202a5.206 5.206 0 0 0-2.267-2.051c-.936-.48-1.979-.72-3.131-.72-1.655 0-3.07.528-4.246 1.583-1.151 1.056-1.811 2.519-1.979 4.39h12.45zm15.046 8.277 6.117-16.697h3.491l-7.737 19.719h-3.814l-7.736-19.719h3.526l6.153 16.697zm19.811 3.346c-1.511 0-2.867-.252-4.066-.755-1.2-.528-2.147-1.248-2.843-2.159-.696-.936-1.079-2.004-1.151-3.203h3.382c.096.984.552 1.787 1.368 2.411.839.624 1.93.936 3.274.936 1.247 0 2.231-.276 2.951-.828.719-.552 1.079-1.248 1.079-2.087 0-.864-.384-1.5-1.151-1.907-.768-.432-1.956-.852-3.563-1.26-1.463-.384-2.662-.767-3.598-1.151a6.833 6.833 0 0 1-2.375-1.763c-.648-.792-.972-1.824-.972-3.095 0-1.008.3-1.931.9-2.771.599-.84 1.451-1.5 2.555-1.979 1.103-.504 2.363-.756 3.778-.756 2.183 0 3.946.552 5.29 1.656 1.343 1.103 2.063 2.614 2.159 4.534h-3.275c-.072-1.032-.492-1.86-1.259-2.483-.744-.624-1.751-.936-3.023-.936-1.175 0-2.111.252-2.806.756-.696.504-1.044 1.163-1.044 1.979 0 .648.204 1.187.612 1.619.432.408.959.744 1.583 1.008.648.24 1.535.515 2.663.827 1.415.384 2.567.768 3.454 1.152.888.36 1.643.911 2.267 1.655.648.744.984 1.715 1.008 2.915 0 1.079-.3 2.051-.9 2.915-.6.863-1.451 1.547-2.555 2.051-1.079.479-2.327.719-3.742.719z" fill="#2E2E2E"/><path d="M188.98 81.374h-42.169a2.811 2.811 0 0 0-2.811 2.81v42.169a2.812 2.812 0 0 0 2.811 2.812h42.169a2.811 2.811 0 0 0 2.811-2.812V84.185a2.81 2.81 0 0 0-2.811-2.811z" fill="#0084FF"/><path d="M152.416 95.736v11.901c0 1.674.405 2.915 1.214 3.725.828.809 1.97 1.214 3.428 1.214 1.439 0 2.564-.405 3.373-1.214.828-.81 1.242-2.051 1.242-3.725V95.736h2.456v11.874c0 1.566-.315 2.888-.945 3.968-.63 1.061-1.484 1.853-2.564 2.375-1.061.521-2.258.782-3.589.782-1.332 0-2.537-.261-3.617-.782-1.061-.522-1.907-1.314-2.537-2.375-.611-1.08-.917-2.402-.917-3.968V95.736h2.456zm30.059 5.451c-.522-1.097-1.277-1.943-2.267-2.537-.99-.611-2.141-.917-3.454-.917-1.314 0-2.501.306-3.563.917-1.043.594-1.871 1.458-2.483 2.591-.593 1.116-.89 2.411-.89 3.886 0 1.476.297 2.771.89 3.887.612 1.115 1.44 1.979 2.483 2.591 1.062.593 2.249.89 3.563.89 1.835 0 3.346-.549 4.534-1.646 1.187-1.098 1.88-2.582 2.078-4.453h-7.503v-1.997h10.12v1.889a9.412 9.412 0 0 1-1.457 4.264 9.174 9.174 0 0 1-3.265 3.05c-1.35.737-2.852 1.106-4.507 1.106-1.746 0-3.338-.405-4.777-1.214a9.214 9.214 0 0 1-3.428-3.428c-.827-1.457-1.241-3.103-1.241-4.939 0-1.835.414-3.481 1.241-4.938.846-1.476 1.988-2.618 3.428-3.428 1.439-.827 3.031-1.241 4.777-1.241 1.997 0 3.76.495 5.289 1.484 1.548.99 2.672 2.384 3.374 4.183h-2.942z" fill="#fff"/></svg>